# xmcd
#
# Track frame offsets:
#	150
#	14921
#	28051
#	42005
#	55712
#	70054
#	83130
#	96842
#	111471
#	123963
#	139079
#	152424
#	164916
#
# Disc length: 2377 seconds
#
# Revision: 1
# Processed by: cddbd v1.5.2PL0 Copyright (c) Steve Scherf et al.
# Submitted via: audiograbber 1.83.01
#
DISCID=af09470d
DTITLE=JOAO NETO E FREDERICO - TA COMBINADO
DYEAR=2011
DGENRE=SERTANEJO
TTITLE0=TA COMBINADO
TTITLE1=ADORO
TTITLE2=MEU CORACAO PEDE CARONA
TTITLE3=JUNTO A TI
TTITLE4=MAIS UM SONHADOR
TTITLE5=PEDE COM JEITINHO
TTITLE6=TE AMO E NADA MAIS
TTITLE7=FASES DE AMAR
TTITLE8=LARGA DO MEU PÉ
TTITLE9=FAZ TEMPO
TTITLE10=POR VOCE
TTITLE11=SORTE PRO AMOR
TTITLE12=TUDO DO AVESSO
EXTD=www.eklipe.blogspot.com
EXTT0=www.eklipe.blogspot.com
EXTT1=www.eklipe.blogspot.com
EXTT2=www.eklipe.blogspot.com
EXTT3=
EXTT4=
EXTT5=www.eklipe.blogspot.com
EXTT6=www.eklipe.blogspot.com
EXTT7=
EXTT8=
EXTT9=
EXTT10=
EXTT11=
EXTT12=
PLAYORDER=
